<?xml version="1.0" encoding="utf-8"?>
<!-- Generator: Adobe Illustrator 18.1.0, SVG Export Plug-In . SVG Version: 6.00 Build 0)  -->
<svg version="1.1" id="Layer_1" xmlns="http://www.w3.org/2000/svg" xmlns:xlink="http://www.w3.org/1999/xlink" x="0px" y="0px"
	 viewBox="0 0 288 288" enable-background="new 0 0 288 288" xml:space="preserve">
<rect fill="#111111" width="288" height="288"/>
<path fill="#BBBBBB" d="M144,113.1c17,0,30.9,13.8,30.9,30.9S161,174.9,144,174.9S113.1,161,113.1,144S127,113.1,144,113.1
	 M144,39.3C86.2,39.3,39.3,86.2,39.3,144S86.2,248.7,144,248.7S248.7,201.8,248.7,144S201.8,39.3,144,39.3L144,39.3z"/>
<path fill="#111111" d="M144,108.5c19.6,0,35.5,15.9,35.5,35.5s-15.9,35.5-35.5,35.5s-35.5-15.9-35.5-35.5S124.4,108.5,144,108.5
	 M144,106.6c-20.6,0-37.4,16.8-37.4,37.4s16.8,37.4,37.4,37.4s37.4-16.8,37.4-37.4S164.6,106.6,144,106.6L144,106.6z"/>
<path fill="#111111" d="M144,179.5c-2.1,0-4.1-0.2-6-0.5l-27.3,69.1h14.8l6.6-17.9l22.6-9.8l9.1,27.7h14.8l-27.3-69.4
	C148.9,179.2,146.5,179.5,144,179.5z M134.3,220.4l10.3-29l10,29H134.3z"/>
</svg>
